<?xml version="1.0" encoding="UTF-8"?> <svg xmlns="http://www.w3.org/2000/svg" id="Layer_2" data-name="Layer 2" viewBox="0 0 300.02 98.09"> <defs> <style>.cls-1{fill:#ffffff;}.cls-2{fill:#77bc1f;}</style> </defs> <title>WebLogos-DIcolor</title> <path class="cls-1" d="M35,56.22,41.1,49.3l1.17,15.36Zm-11.1-7,6.24,7L22.7,64.66Zm2-3.11,6.64-8.2,6.74,8.21-6.69,7.44Zm-.45-16.85L30.18,35l-5.77,7.19Zm9.4,5.8,4.75-5.87,1,12.94ZM27,24.9H38.2l-5.72,7.28Zm.85-7.59h9.33v3.61H27.84Zm-3.34-3v6.65H20.23V25H22.5L17.61,76.33h4.2l.46-6L32.56,58.92,42.68,70.18l.48,6.15h4.24L42.47,25h2.62V20.92H40.51V14.27Z" transform="translate(-17.61 -14.27)"></path> <path class="cls-1" d="M70.38,99.45a3.95,3.95,0,1,0,4,3.85,3.9,3.9,0,0,0-4-3.85m-5.74-6.52h1.88v6.72h0a5,5,0,0,1,4.15-2,5.64,5.64,0,0,1,5.68,5.59,5.74,5.74,0,0,1-5.76,5.82,4.77,4.77,0,0,1-4.06-1.93h0v1.67H64.63Z" transform="translate(-17.61 -14.27)"></path> <path class="cls-1" d="M89,102.57a3.64,3.64,0,0,0-7.21,0Zm1.66,4.17a6.29,6.29,0,0,1-4.92,2.36,5.62,5.62,0,0,1-6-5.72,5.51,5.51,0,0,1,5.63-5.7c3.37,0,5.72,2.58,5.72,6.43H81.75a3.79,3.79,0,0,0,3.92,3.22,4.56,4.56,0,0,0,3.5-1.76Z" transform="translate(-17.61 -14.27)"></path> <path class="cls-1" d="M95.31,95.31h1.88v2.64h1.74V99.6H97.19v6.7c0,.58.19.79.92.79H99v1.74c-.27,0-.71,0-1.15,0-1.93,0-2.51-.67-2.51-2.35V99.6H93.8V97.95h1.51Z" transform="translate(-17.61 -14.27)"></path> <path class="cls-1" d="M102.91,95.31h1.89v2.64h1.74V99.6H104.8v6.7c0,.58.19.79.92.79h.86v1.74c-.27,0-.71,0-1.15,0-1.93,0-2.52-.67-2.52-2.35V99.6h-1.51V97.95h1.51Z" transform="translate(-17.61 -14.27)"></path> <path class="cls-1" d="M118.78,102.57a3.64,3.64,0,0,0-7.21,0Zm1.65,4.17a6.28,6.28,0,0,1-4.92,2.36,5.62,5.62,0,0,1-5.95-5.72,5.51,5.51,0,0,1,5.63-5.7c3.37,0,5.72,2.58,5.72,6.43h-9.34a3.78,3.78,0,0,0,3.92,3.22,4.56,4.56,0,0,0,3.5-1.76Z" transform="translate(-17.61 -14.27)"></path> <path class="cls-1" d="M124.79,97.95h1.88V99.5h0c.94-1.7,1.84-1.8,3.44-1.8v2a3.7,3.7,0,0,0-.86-.11c-1.57,0-2.62,1.09-2.62,3.08v6.2h-1.88Z" transform="translate(-17.61 -14.27)"></path> <polygon class="cls-1" points="112.55 97.48 113.91 98.09 116.55 92.91 114.64 91.99 112.55 97.48"></polygon> <path class="cls-1" d="M145.06,96.29c0-2.28,1.57-3.37,3.75-3.48V94.7h-.38a1.54,1.54,0,0,0-1.49,1.74v1.51h1.78V99.6h-1.78v9.26h-1.89V99.6H143.4V97.95h1.66Z" transform="translate(-17.61 -14.27)"></path> <path class="cls-1" d="M156.37,103.1c-2.3,0-3.08,1.11-3.08,2.18s.78,2.18,3.08,2.18,3.08-1.11,3.08-2.18-.78-2.18-3.08-2.18m3-1.55c0-1.8-1.8-2.2-3.27-2.2a6.7,6.7,0,0,0-3,.75l-.81-1.57a10,10,0,0,1,3.94-.84c2.62,0,5.05,1.11,5.05,3.71v7.46h-1.76v-1.17a4.44,4.44,0,0,1-3.48,1.42c-2.66,0-4.76-1.49-4.76-3.91,0-2,1.7-3.75,4.73-3.75a5,5,0,0,1,3.37,1.23Z" transform="translate(-17.61 -14.27)"></path> <path class="cls-1" d="M166.62,105.68a2.06,2.06,0,0,0,2.26,1.78c1.7,0,2.16-.92,2.16-1.57s-.46-1.15-1.93-1.55l-1.91-.52A2.7,2.7,0,0,1,165,101c0-1.8,1.36-3.31,3.9-3.31,2.79,0,3.75,1.76,3.75,3.4h-1.76a1.82,1.82,0,0,0-2-1.84c-1.2,0-2,.71-2,1.57,0,.61.34,1.07,1.21,1.32l2.56.73a2.68,2.68,0,0,1,2.29,2.85c0,2.22-1.95,3.39-4,3.39-2.56,0-4-1.36-4.11-3.43Z" transform="translate(-17.61 -14.27)"></path> <path class="cls-1" d="M177.05,95.31h1.89v2.64h1.74V99.6h-1.74v6.7c0,.58.19.79.92.79h.86v1.74c-.27,0-.71,0-1.15,0-1.93,0-2.52-.67-2.52-2.35V99.6h-1.51V97.95h1.51Z" transform="translate(-17.61 -14.27)"></path> <path class="cls-1" d="M192.91,102.57a3.64,3.64,0,0,0-7.21,0Zm1.66,4.17a6.29,6.29,0,0,1-4.92,2.36,5.62,5.62,0,0,1-6-5.72,5.51,5.51,0,0,1,5.64-5.7c3.37,0,5.72,2.58,5.72,6.43h-9.34a3.79,3.79,0,0,0,3.92,3.22,4.56,4.56,0,0,0,3.5-1.76Z" transform="translate(-17.61 -14.27)"></path> <path class="cls-1" d="M198.93,97.95h1.89V99.5h0c.94-1.7,1.84-1.8,3.43-1.8v2a3.7,3.7,0,0,0-.86-.11c-1.57,0-2.62,1.09-2.62,3.08v6.2h-1.89Z" transform="translate(-17.61 -14.27)"></path> <path class="cls-1" d="M220,99.45a3.95,3.95,0,1,0,3.86,4,4,4,0,0,0-3.86-4m3.86-6.52h1.88v15.92h-1.88v-1.67h0a4.77,4.77,0,0,1-4.07,1.93,5.74,5.74,0,0,1-5.76-5.82,5.64,5.64,0,0,1,5.68-5.59,5,5,0,0,1,4.14,2h0Z" transform="translate(-17.61 -14.27)"></path> <path class="cls-1" d="M238.89,102.57a3.64,3.64,0,0,0-7.21,0Zm1.66,4.17a6.28,6.28,0,0,1-4.92,2.36,5.62,5.62,0,0,1-6-5.72,5.51,5.51,0,0,1,5.64-5.7c3.37,0,5.72,2.58,5.72,6.43h-9.34a3.79,3.79,0,0,0,3.92,3.22,4.54,4.54,0,0,0,3.5-1.76Z" transform="translate(-17.61 -14.27)"></path> <path class="cls-1" d="M252.42,100.54a3.53,3.53,0,0,0-2.53-1.09c-1.87,0-3.6,1.36-3.6,4a3.62,3.62,0,0,0,6.22,2.74l1.11,1.38a5.24,5.24,0,0,1-3.77,1.49,5.52,5.52,0,0,1-5.57-5.68,5.67,5.67,0,0,1,5.59-5.74,6.06,6.06,0,0,1,3.83,1.37Z" transform="translate(-17.61 -14.27)"></path> <path class="cls-1" d="M257.18,97.95h1.89v10.91h-1.89Zm.94-4.78a1.32,1.32,0,1,1-1.32,1.32,1.32,1.32,0,0,1,1.32-1.32" transform="translate(-17.61 -14.27)"></path> <path class="cls-1" d="M264.62,105.68a2.07,2.07,0,0,0,2.26,1.78c1.7,0,2.15-.92,2.15-1.57s-.46-1.15-1.92-1.55l-1.91-.52A2.7,2.7,0,0,1,263,101c0-1.8,1.36-3.31,3.9-3.31,2.78,0,3.75,1.76,3.75,3.4h-1.76a1.82,1.82,0,0,0-2-1.84c-1.19,0-2,.71-2,1.57,0,.61.33,1.07,1.21,1.32l2.56.73a2.68,2.68,0,0,1,2.28,2.85c0,2.22-1.95,3.39-4,3.39-2.55,0-4-1.36-4.1-3.43Z" transform="translate(-17.61 -14.27)"></path> <path class="cls-1" d="M274.72,97.95h1.89v10.91h-1.89Zm.95-4.78a1.32,1.32,0,1,1-1.32,1.32,1.31,1.31,0,0,1,1.32-1.32" transform="translate(-17.61 -14.27)"></path> <path class="cls-1" d="M282.85,103.41a3.9,3.9,0,1,0,7.79,0,3.9,3.9,0,1,0-7.79,0m3.9-5.72a5.76,5.76,0,0,1,5.91,5.72,5.91,5.91,0,0,1-11.82,0,5.76,5.76,0,0,1,5.91-5.72" transform="translate(-17.61 -14.27)"></path> <path class="cls-1" d="M304,102.51c0-1.64-.67-3.06-2.53-3.06s-2.83,1.19-2.83,3.27v6.14h-1.88V97.95h1.88v1.28h0a3.43,3.43,0,0,1,3-1.53c2.12,0,4.21,1.15,4.21,4.11v7.06H304Z" transform="translate(-17.61 -14.27)"></path> <path class="cls-1" d="M311.32,105.68a2.07,2.07,0,0,0,2.26,1.78c1.7,0,2.16-.92,2.16-1.57s-.46-1.15-1.93-1.55l-1.91-.52a2.7,2.7,0,0,1-2.22-2.81c0-1.8,1.36-3.31,3.9-3.31,2.78,0,3.75,1.76,3.75,3.4h-1.75a1.83,1.83,0,0,0-2-1.84c-1.19,0-2,.71-2,1.57,0,.61.33,1.07,1.21,1.32l2.56.73a2.68,2.68,0,0,1,2.28,2.85c0,2.22-1.95,3.39-4,3.39-2.56,0-4-1.36-4.11-3.43Z" transform="translate(-17.61 -14.27)"></path> <path class="cls-1" d="M85.85,55.18a.49.49,0,0,0-.55-.55h-6a14.63,14.63,0,0,0-3.12.31,5.52,5.52,0,0,0-2.43,1.16,5.44,5.44,0,0,0-1.57,2.4,11.93,11.93,0,0,0-.55,4,10.35,10.35,0,0,0,.55,3.7,5.32,5.32,0,0,0,1.54,2.26,5.72,5.72,0,0,0,2.4,1.16,14,14,0,0,0,3.17.33h6a.49.49,0,0,0,.55-.55Zm0-7.83v-9.7a.49.49,0,0,1,.55-.55H92a.49.49,0,0,1,.55.55V76.08a.49.49,0,0,1-.55.55H74.88a7.5,7.5,0,0,1-4.52-1.35,10.91,10.91,0,0,1-3.09-3.45,16.57,16.57,0,0,1-1.79-4.58,21.12,21.12,0,0,1-.58-4.8,28.52,28.52,0,0,1,.58-6,13.91,13.91,0,0,1,1.79-4.6,8.59,8.59,0,0,1,3.09-2.95,9.12,9.12,0,0,1,4.52-1H85.3a.49.49,0,0,0,.55-.55" transform="translate(-17.61 -14.27)"></path> <path class="cls-1" d="M111.77,47.9a.49.49,0,0,1,.55.55v5.62a.49.49,0,0,1-.55.55h-5.29a1.46,1.46,0,0,0-.88.28,3.57,3.57,0,0,0-.69.63,2.73,2.73,0,0,0-.47.77,2,2,0,0,0-.16.75v19a.49.49,0,0,1-.55.55H97.54a.49.49,0,0,1-.55-.55v-21a6.79,6.79,0,0,1,.58-2.76A7.39,7.39,0,0,1,99.14,50a7.5,7.5,0,0,1,2.32-1.57,7,7,0,0,1,2.81-.58Z" transform="translate(-17.61 -14.27)"></path> <path class="cls-1" d="M116.53,48.45a.49.49,0,0,1,.55-.55h5.63a.49.49,0,0,1,.55.55V76.08a.49.49,0,0,1-.55.55h-5.63a.49.49,0,0,1-.55-.55Zm.55-11.36h5.63a.49.49,0,0,1,.55.55v5.62a.49.49,0,0,1-.55.55h-5.63a.49.49,0,0,1-.55-.55V37.64a.49.49,0,0,1,.55-.55" transform="translate(-17.61 -14.27)"></path> <path class="cls-1" d="M129.67,37.09h5.63a.49.49,0,0,1,.55.55V76.08a.49.49,0,0,1-.55.55h-5.63a.49.49,0,0,1-.55-.55V37.64a.49.49,0,0,1,.55-.55" transform="translate(-17.61 -14.27)"></path> <path class="cls-1" d="M142.27,37.09h5.62a.49.49,0,0,1,.55.55V76.08a.49.49,0,0,1-.55.55h-5.62a.49.49,0,0,1-.55-.55V37.64a.49.49,0,0,1,.55-.55" transform="translate(-17.61 -14.27)"></path> <path class="cls-1" d="M154.31,48.45a.49.49,0,0,1,.55-.55h5.62a.49.49,0,0,1,.55.55V76.08a.49.49,0,0,1-.55.55h-5.62a.49.49,0,0,1-.55-.55Zm.55-11.36h5.62a.49.49,0,0,1,.55.55v5.62a.49.49,0,0,1-.55.55h-5.62a.49.49,0,0,1-.55-.55V37.64a.49.49,0,0,1,.55-.55" transform="translate(-17.61 -14.27)"></path> <path class="cls-1" d="M172.54,74.86c0,1.18-.52,1.77-1.55,1.77H167.3a1.19,1.19,0,0,1-1.13-.66,3.18,3.18,0,0,1-.36-1.54V51.54A3.48,3.48,0,0,1,166.94,49a3.92,3.92,0,0,1,2.9-1.13H182.3a8.64,8.64,0,0,1,3.7.8,10.23,10.23,0,0,1,3,2.12,9.57,9.57,0,0,1,2,3,9,9,0,0,1,.72,3.53V76.08c0,.37-.2.55-.61.55h-5.57a.49.49,0,0,1-.55-.55V58.54a5.31,5.31,0,0,0-.41-2.26,3.29,3.29,0,0,0-1.16-1.38,4.75,4.75,0,0,0-1.74-.69,11.27,11.27,0,0,0-2.15-.19h-5.35a1.72,1.72,0,0,0-1.13.44,1.24,1.24,0,0,0-.52.94Z" transform="translate(-17.61 -14.27)"></path> <path class="cls-1" d="M203.53,65.76a5.1,5.1,0,0,0,1.41,2.32,6,6,0,0,0,2.67,1.38,17,17,0,0,0,4.22.44h3.53a.49.49,0,0,0,.55-.55V55.18a.49.49,0,0,0-.55-.55h-7.22a4.33,4.33,0,0,0-3.83,1.71A8.09,8.09,0,0,0,203.12,61v1.43a11.56,11.56,0,0,0,.41,3.31M199.1,81.59H214a1.5,1.5,0,0,0,1.1-.38,2.47,2.47,0,0,0,.58-.91,3.7,3.7,0,0,0,.22-1.16c0-.42,0-.8,0-1.13V76.63H207.7a11.06,11.06,0,0,1-4.27-.88,11.54,11.54,0,0,1-3.83-2.62,13.7,13.7,0,0,1-2.79-4.24,14.53,14.53,0,0,1-1.07-5.76V59.59a14.46,14.46,0,0,1,.66-4.36,10.68,10.68,0,0,1,2-3.72A10,10,0,0,1,202,48.89a12.33,12.33,0,0,1,5.16-1h12.74a3.53,3.53,0,0,1,2.2.63,2.44,2.44,0,0,1,.83,2.07V80.16a6.49,6.49,0,0,1-.58,2.51,9.29,9.29,0,0,1-1.57,2.48A8.82,8.82,0,0,1,218.45,87a5.63,5.63,0,0,1-2.81.75H199.1a.49.49,0,0,1-.55-.55V82.14a.49.49,0,0,1,.55-.55" transform="translate(-17.61 -14.27)"></path> <path class="cls-2" d="M228.35,48.45a.49.49,0,0,1,.55-.55h5.63a.49.49,0,0,1,.55.55V76.08a.49.49,0,0,1-.55.55h-5.63a.49.49,0,0,1-.55-.55Zm.55-11.36h5.63a.49.49,0,0,1,.55.55v5.62a.49.49,0,0,1-.55.55h-5.63a.49.49,0,0,1-.55-.55V37.64a.49.49,0,0,1,.55-.55" transform="translate(-17.61 -14.27)"></path> <path class="cls-2" d="M246.81,74.86c0,1.18-.52,1.77-1.54,1.77h-3.69a1.2,1.2,0,0,1-1.13-.66,3.17,3.17,0,0,1-.36-1.54V51.54A3.48,3.48,0,0,1,241.22,49a3.92,3.92,0,0,1,2.9-1.13h12.46a8.63,8.63,0,0,1,3.69.8,10.23,10.23,0,0,1,3,2.12,9.66,9.66,0,0,1,2,3,9.11,9.11,0,0,1,.72,3.53V76.08c0,.37-.2.55-.61.55h-5.57a.49.49,0,0,1-.55-.55V58.54a5.3,5.3,0,0,0-.41-2.26,3.27,3.27,0,0,0-1.16-1.38,4.76,4.76,0,0,0-1.74-.69,11.25,11.25,0,0,0-2.15-.19h-5.35a1.72,1.72,0,0,0-1.13.44,1.24,1.24,0,0,0-.53.94Z" transform="translate(-17.61 -14.27)"></path> <path class="cls-2" d="M279.89,47.35a.49.49,0,0,0,.55.55H285a.49.49,0,0,1,.55.55v5.62a.49.49,0,0,1-.55.55h-4.52a.49.49,0,0,0-.55.55v20.9a.48.48,0,0,1-.55.55h-5.63a.49.49,0,0,1-.55-.55V55.18a.49.49,0,0,0-.55-.55H269.7a.49.49,0,0,1-.55-.55V48.45a.49.49,0,0,1,.55-.55h2.92a.49.49,0,0,0,.55-.55V43.87a5.77,5.77,0,0,1,.58-2.45,7.9,7.9,0,0,1,1.49-2.18,8.38,8.38,0,0,1,2-1.54,4.7,4.7,0,0,1,2.23-.61h7.88a.49.49,0,0,1,.55.55v5.62c0,.37-.15.55-.44.55H282.1a1.27,1.27,0,0,0-.66.25,3.76,3.76,0,0,0-.72.61,4.49,4.49,0,0,0-.58.77,1.48,1.48,0,0,0-.25.74Z" transform="translate(-17.61 -14.27)"></path> <path class="cls-2" d="M310.33,57.38a1.87,1.87,0,0,0-.41-1.19,3.4,3.4,0,0,0-1.07-.88,5.28,5.28,0,0,0-1.49-.53,8.43,8.43,0,0,0-1.66-.17h-6a7.56,7.56,0,0,0-1.44.14,4.21,4.21,0,0,0-1.3.47,3,3,0,0,0-1,.88,2.23,2.23,0,0,0-.39,1.32v8.82a3.25,3.25,0,0,0,.47,1.82,3.46,3.46,0,0,0,1.19,1.13,4.5,4.5,0,0,0,1.54.55,9.5,9.5,0,0,0,1.55.14h5.07a6.22,6.22,0,0,0,3.45-.94,2.76,2.76,0,0,0,1.46-2.37V57.38Zm6.78,8.1a21.49,21.49,0,0,1-.58,5.46,8,8,0,0,1-1.76,3.42,6.28,6.28,0,0,1-3,1.76,16.87,16.87,0,0,1-4.35.5H297.6a8.62,8.62,0,0,1-4.19-.91,7.49,7.49,0,0,1-2.65-2.37,9.1,9.1,0,0,1-1.38-3.3,18.42,18.42,0,0,1-.39-3.78V56.55a8.9,8.9,0,0,1,.69-3.58,8.35,8.35,0,0,1,1.84-2.73,8,8,0,0,1,2.73-1.74,9.21,9.21,0,0,1,3.34-.61h11.14a8.78,8.78,0,0,1,3,.55,8.08,8.08,0,0,1,2.7,1.63,8.49,8.49,0,0,1,1.93,2.59,7.78,7.78,0,0,1,.75,3.5Z" transform="translate(-17.61 -14.27)"></path> </svg> 